<svg xmlns="http://www.w3.org/2000/svg" xmlns:xlink="http://www.w3.org/1999/xlink" width="500" zoomAndPan="magnify" viewBox="0 0 375 374.999991" height="500" preserveAspectRatio="xMidYMid meet" version="1.0"><defs><clipPath id="806cb2ac24"><path d="M 280 16 L 374.863281 16 L 374.863281 102 L 280 102 Z M 280 16 " clip-rule="nonzero"/></clipPath><clipPath id="73f8421102"><path d="M 289 44 L 374.863281 44 L 374.863281 155 L 289 155 Z M 289 44 " clip-rule="nonzero"/></clipPath><clipPath id="5b0b9e3846"><path d="M 305 61 L 374.863281 61 L 374.863281 138 L 305 138 Z M 305 61 " clip-rule="nonzero"/></clipPath><clipPath id="3d9d00283d"><path d="M 268 63 L 374.863281 63 L 374.863281 166 L 268 166 Z M 268 63 " clip-rule="nonzero"/></clipPath><clipPath id="7a2181cd3b"><path d="M 106.363281 164 L 248 164 L 248 350 L 106.363281 350 Z M 106.363281 164 " clip-rule="nonzero"/></clipPath><clipPath id="4801a9d215"><path d="M 296 114 L 374.863281 114 L 374.863281 251 L 296 251 Z M 296 114 " clip-rule="nonzero"/></clipPath><clipPath id="0a22f04e35"><path d="M 286 123 L 374.863281 123 L 374.863281 262 L 286 262 Z M 286 123 " clip-rule="nonzero"/></clipPath></defs><path stroke-linecap="butt" transform="matrix(0.852466, 0, 0, 0.852466, 177.254568, -26.852693)" fill-opacity="1" fill="#303030" fill-rule="evenodd" stroke-linejoin="miter" d="M 122.877969 185.579576 C 123.789845 185.075523 124.472607 184.32861 124.706304 183.297594 C 125.049976 182.284907 125.352407 180.548219 124.555088 179.489709 C 123.982302 178.367048 122.80007 176.983195 121.054217 176.318763 C 119.358769 175.356482 118.396488 174.930329 114.396147 174.582074 C 110.666161 174.23382 101.332032 173.661034 97.913642 174.692049 C 94.550239 175.73223 93.395502 177.93173 94.27072 181.047689 C 93.138893 180.287028 91.819193 181.226398 90.316201 183.874963 C 88.955261 186.596844 86.99404 191.820657 85.358161 196.742039 C 83.900992 201.594686 81.243263 207.308805 80.368045 212.619681 C 79.474498 217.67395 80.69797 220.038412 79.868575 227.860385 C 79.194978 235.709851 77.352897 251.477519 75.826994 259.487365 C 74.337749 267.345996 71.006422 272.221555 71.16222 275.057994 C 71.638779 277.646989 76.601401 278.114383 77.724063 275.80949 C 78.869636 273.353381 77.261251 267.245186 77.856949 261.677701 C 78.823813 256.17895 80.867515 250.208224 81.939771 243.192734 C 83.034939 236.02603 82.370507 227.379244 83.754359 219.502284 C 85.271098 211.542843 88.969008 200.494936 90.861494 195.720188 C 93.042665 190.794224 94.852671 192.338456 95.924927 190.638426 C 97.01093 188.837585 97.5104 187.238365 97.285868 185.410031 C 99.338735 185.877425 101.364108 185.923247 103.06872 185.918665 C 104.837485 185.822437 106.44587 184.777674 107.953444 184.942637 C 109.598487 184.974713 110.537857 186.161527 112.870243 186.317325 C 115.546302 186.381477 118.607273 186.156944 122.877969 185.579576 Z M 122.877969 185.579576 " stroke="#000000" stroke-width="2" stroke-opacity="1" stroke-miterlimit="10"/><path stroke-linecap="butt" transform="matrix(0.852466, 0, 0, 0.852466, 177.254568, -26.852693)" fill-opacity="1" fill="#303030" fill-rule="nonzero" stroke-linejoin="miter" d="M 96.236523 181.139334 C 96.52979 182.266578 97.537894 183.105138 98.573492 183.751241 C 99.911521 184.241546 101.510741 184.521066 103.146619 184.557724 C 104.823738 184.392762 106.294654 183.526709 107.921368 183.60919 C 109.548082 183.742076 111.197707 184.951801 113.245991 185.162587 C 115.647112 185.226739 120.252316 184.915143 121.622421 184.030761 C 123.125413 182.967669 123.010856 180.497814 122.071486 179.311 C 121.246673 178.041705 119.404592 176.996942 116.705622 176.424156 C 114.075386 175.800964 109.699297 175.39314 106.257996 175.649748 C 102.940416 175.782635 99.242507 175.897192 97.359184 176.946537 C 95.769129 177.890489 96.112801 179.943356 96.236523 181.139334 Z M 96.236523 181.139334 " stroke="#000000" stroke-width="2" stroke-opacity="1" stroke-miterlimit="4"/><path stroke-linecap="butt" transform="matrix(0.852466, 0, 0, 0.852466, 177.254568, -26.852693)" fill-opacity="1" fill="#303030" fill-rule="nonzero" stroke-linejoin="miter" d="M 84.2355 210.291877 C 85.087806 207.629565 86.311278 201.920029 87.521003 198.813235 C 88.85445 195.62396 90.476582 193.561928 91.704636 191.889392 C 93.125147 190.349742 95.168849 190.303919 95.53085 189.190422 C 96.163206 187.769911 95.356723 185.176334 94.701455 184.241546 C 94.087428 183.366328 93.340514 182.623997 92.057472 184.287369 C 90.998963 185.936994 89.509718 190.32683 87.997562 193.942259 C 86.471658 197.301079 84.606665 201.672585 83.319041 205.223862 C 82.283443 208.61934 81.591517 213.453659 81.481542 215.01622 C 81.669416 216.427566 82.622533 215.062043 83.144914 214.287636 C 83.667296 213.508646 83.621473 212.839631 84.2355 210.291877 Z M 84.2355 210.291877 " stroke="#000000" stroke-width="2" stroke-opacity="1" stroke-miterlimit="4"/><path stroke-linecap="butt" transform="matrix(0.852466, 0, 0, 0.852466, 177.254568, -26.852693)" fill-opacity="1" fill="#303030" fill-rule="evenodd" stroke-linejoin="miter" d="M 118.029904 187.421657 C 119.056338 186.880946 119.798669 186.101957 119.991125 185.04803 C 120.311886 184.012432 120.527253 182.243667 119.50082 181.194322 C 118.735577 180.076243 117.237168 178.715302 115.133896 178.096692 C 113.067282 177.180234 111.894215 176.776992 107.169872 176.557042 C 102.770871 176.323345 91.77337 176.048408 87.841764 177.207728 C 83.974309 178.37163 82.801242 180.635282 84.079702 183.764988 C 82.69585 183.031821 81.224934 184.026178 79.671537 186.757225 C 78.301432 189.561587 76.427274 194.913705 74.905953 199.949644 C 73.590835 204.912266 70.946853 210.786765 70.346572 216.198452 C 69.714216 221.344366 71.350094 223.695081 71.015587 231.649941 C 70.868954 239.623129 69.993736 255.651987 68.86191 263.813049 C 67.748413 271.822896 64.242959 276.872582 64.66453 279.741096 C 65.429773 282.343838 71.299689 282.655434 72.422351 280.286389 C 73.567924 277.761546 71.175967 271.630439 71.423411 265.971309 C 72.110755 260.367165 74.016988 254.249805 74.69975 247.110594 C 75.400841 239.820167 73.911596 231.077154 74.892206 223.058143 C 76.01945 214.947486 79.460751 203.638389 81.279921 198.739919 C 83.442763 193.676486 85.692669 195.179478 86.810748 193.42446 C 87.937992 191.564049 88.396221 189.928171 87.97465 188.086089 C 90.430759 188.489331 92.808968 188.475584 94.802265 188.411432 C 96.873462 188.255634 98.678885 187.146719 100.461396 187.261277 C 102.390541 187.242948 103.595684 188.416014 106.345059 188.493913 C 109.497676 188.471002 113.067282 188.141077 118.029904 187.421657 Z M 118.029904 187.421657 " stroke="#000000" stroke-width="2" stroke-opacity="1" stroke-miterlimit="10"/><path stroke-linecap="butt" transform="matrix(0.852466, 0, 0, 0.852466, 177.254568, -26.852693)" fill-opacity="1" fill="#303030" fill-rule="nonzero" stroke-linejoin="miter" d="M 86.393759 183.787899 C 86.833659 184.919725 88.080043 185.739956 89.35392 186.358565 C 90.962305 186.80763 92.859374 187.041327 94.788519 187.022998 C 96.740575 186.803048 98.3902 185.877425 100.310181 185.909501 C 102.230161 185.991982 104.264699 187.160466 106.688731 187.3071 C 109.516005 187.293353 114.895616 186.825959 116.426102 185.886589 C 118.103221 184.763928 117.768714 182.261996 116.568153 181.088929 C 115.495897 179.833381 113.245991 178.839024 110.033804 178.344136 C 106.894934 177.803426 101.730691 177.528488 97.707439 177.904236 C 93.821655 178.147098 89.491389 178.380795 87.369788 179.503456 C 85.578111 180.51156 86.15548 182.582756 86.393759 183.787899 Z M 86.393759 183.787899 " stroke="#000000" stroke-width="2" stroke-opacity="1" stroke-miterlimit="4"/><path stroke-linecap="butt" transform="matrix(0.852466, 0, 0, 0.852466, 177.254568, -26.852693)" fill-opacity="1" fill="#303030" fill-rule="nonzero" stroke-linejoin="miter" d="M 74.695168 213.710267 C 75.47874 210.988385 76.450185 205.168874 77.614088 201.979599 C 78.915459 198.707842 80.65673 196.56333 81.958101 194.826641 C 83.502333 193.222839 85.889707 193.108281 86.224215 191.971873 C 86.847406 190.510122 85.692669 187.911962 84.844945 186.986339 C 84.052208 186.120286 83.117421 185.391702 81.747315 187.119226 C 80.638401 188.828421 79.259131 193.319067 77.774468 197.030724 C 76.257729 200.48119 74.424812 204.967254 73.205923 208.610176 C 72.266553 212.078971 71.854146 217.000353 71.854146 218.590408 C 72.188654 220.010919 73.196758 218.599573 73.746633 217.797671 C 74.291926 216.991188 74.181951 216.313009 74.695168 213.710267 Z M 74.695168 213.710267 " stroke="#000000" stroke-width="2" stroke-opacity="1" stroke-miterlimit="4"/><path stroke-linecap="butt" transform="matrix(0.852466, 0, 0, 0.852466, 177.254568, -26.852693)" fill-opacity="1" fill="#303030" fill-rule="evenodd" stroke-linejoin="miter" d="M 105.611893 193.841448 C 106.60625 193.117446 107.321088 192.118506 107.495215 190.8263 C 107.793064 189.543258 107.980938 187.380416 106.963669 186.170691 C 106.207591 184.855573 104.722928 183.293012 102.665479 182.674402 C 100.630941 181.689209 99.480786 181.276803 94.866418 181.308879 C 90.563645 181.308879 79.81817 181.675463 75.991956 183.334252 C 72.229894 184.997624 71.111815 187.829481 72.404022 191.559467 C 71.043081 190.752983 69.617988 192.063519 68.137908 195.486491 C 66.831954 198.987362 65.067772 205.622521 63.651844 211.854439 C 62.428372 217.980963 59.917276 225.303466 59.404059 231.924878 C 58.854184 238.234694 60.476315 240.993234 60.251783 250.693947 C 60.210542 260.412988 59.559857 279.98854 58.560917 289.996266 C 57.575724 299.820701 54.212322 306.194669 54.656804 309.658882 C 55.444958 312.784005 61.177406 312.784005 62.24508 309.823844 C 63.331083 306.680392 60.920797 299.367054 61.08576 292.461539 C 61.68604 285.597266 63.473134 278.027319 64.045921 269.288888 C 64.641619 260.367165 63.074475 249.818729 63.931363 239.98513 C 64.925721 230.041556 68.14249 216.051818 69.860849 209.971117 C 71.909134 203.665883 74.126963 205.356748 75.194637 203.143501 C 76.271476 200.806532 76.693047 198.790324 76.266894 196.567912 C 78.668015 196.907002 80.991237 196.732875 82.938711 196.531254 C 84.964084 196.210493 86.709938 194.739577 88.451209 194.767071 C 90.334531 194.620438 91.525927 195.972214 94.21115 195.894315 C 97.281286 195.6652 100.76841 195.037426 105.611893 193.841448 Z M 105.611893 193.841448 " stroke="#000000" stroke-width="2" stroke-opacity="1" stroke-miterlimit="10"/><path stroke-linecap="butt" transform="matrix(0.852466, 0, 0, 0.852466, 177.254568, -26.852693)" fill-opacity="1" fill="#303030" fill-rule="nonzero" stroke-linejoin="miter" d="M 74.658509 191.449492 C 75.102992 192.796686 76.331046 193.713144 77.582012 194.386741 C 79.162902 194.835806 81.018731 194.996186 82.902053 194.849552 C 84.803704 194.455475 86.407506 193.227421 88.286246 193.140358 C 90.155821 193.117446 92.162865 194.414235 94.527328 194.432564 C 97.285868 194.240108 102.541757 193.328232 104.021837 192.08643 C 105.643969 190.60635 105.28655 187.586619 104.095154 186.234843 C 103.036644 184.773092 100.823397 183.705418 97.684527 183.306759 C 94.609809 182.848529 89.560123 182.843947 85.633099 183.558785 C 81.848126 184.099495 77.623252 184.667699 75.561221 186.170691 C 73.81995 187.513303 74.411066 189.996905 74.658509 191.449492 Z M 74.658509 191.449492 " stroke="#000000" stroke-width="2" stroke-opacity="1" stroke-miterlimit="4"/><path stroke-linecap="butt" transform="matrix(0.852466, 0, 0, 0.852466, 177.254568, -26.852693)" fill-opacity="1" fill="#303030" fill-rule="nonzero" stroke-linejoin="miter" d="M 63.615185 228.621045 C 64.348352 225.257643 65.218987 218.104685 66.314155 214.150167 C 67.54221 210.081092 69.214746 207.35921 70.465712 205.164292 C 71.954957 203.116007 74.287344 202.822741 74.594357 201.415977 C 75.190055 199.596807 74.026153 196.50376 73.187594 195.431504 C 72.404022 194.427982 71.478399 193.598587 70.163281 195.788922 C 69.104771 197.9426 67.812565 203.50092 66.410383 208.110706 C 64.971544 212.413478 63.234855 217.99471 62.093864 222.503685 C 61.218646 226.792711 60.879557 232.804678 60.897886 234.738405 C 61.24614 236.452183 62.217586 234.669671 62.739967 233.652402 C 63.266931 232.639716 63.147791 231.819485 63.615185 228.621045 Z M 63.615185 228.621045 " stroke="#000000" stroke-width="2" stroke-opacity="1" stroke-miterlimit="4"/><path stroke-linecap="butt" transform="matrix(0.852466, 0, 0, 0.852466, 177.254568, -26.852693)" fill-opacity="1" fill="#303030" fill-rule="evenodd" stroke-linejoin="miter" d="M 91.878763 203.830845 C 92.896032 203.143501 93.647528 202.172055 93.862896 200.884431 C 94.206567 199.610554 94.47234 197.456877 93.496312 196.210493 C 92.786057 194.872464 91.356382 193.259497 89.317262 192.572153 C 87.319382 191.513644 86.187556 191.059997 81.57777 190.931693 C 77.274998 190.780477 66.520358 190.771312 62.643739 192.297216 C 58.82669 193.832284 57.6078 196.6229 58.771702 200.389544 C 57.433673 199.537237 55.96734 200.797368 54.36812 204.165352 C 52.943027 207.620401 50.945148 214.191408 49.313852 220.368337 C 47.879594 226.449039 45.11189 233.679896 44.364976 240.278397 C 43.595151 246.565301 45.125637 249.378829 44.562015 259.070377 C 44.181684 268.780254 42.848237 288.319147 41.496461 298.285633 C 40.172179 308.073409 36.588826 314.323655 36.914169 317.801615 C 37.587766 320.94965 43.320213 321.15127 44.488698 318.227768 C 45.684676 315.125556 43.526417 307.729737 43.934241 300.837969 C 44.7728 294.00119 46.825667 286.495395 47.700885 277.779875 C 48.608179 268.885646 47.407618 258.295969 48.612761 248.494446 C 49.955372 238.592113 53.653282 224.721515 55.582427 218.704965 C 57.850662 212.47763 60.008921 214.241813 61.154494 212.069806 C 62.309232 209.774078 62.80412 207.767034 62.455865 205.535458 C 64.84324 205.957029 67.171044 205.865383 69.1231 205.727914 C 71.153056 205.48047 72.953897 204.073707 74.690585 204.16077 C 76.57849 204.078289 77.724063 205.471306 80.409286 205.489635 C 83.493168 205.365913 86.998622 204.857278 91.878763 203.830845 Z M 91.878763 203.830845 " stroke="#000000" stroke-width="2" stroke-opacity="1" stroke-miterlimit="10"/><path stroke-linecap="butt" transform="matrix(0.852466, 0, 0, 0.852466, 177.254568, -26.852693)" fill-opacity="1" fill="#303030" fill-rule="nonzero" stroke-linejoin="miter" d="M 61.02619 200.36205 C 61.42485 201.722991 62.620828 202.68069 63.8443 203.395527 C 65.406861 203.899579 67.258107 204.128694 69.14143 204.046213 C 71.06141 203.72087 72.701871 202.543221 74.585193 202.524892 C 76.454768 202.566132 78.415989 203.931655 80.780452 204.037048 C 83.543574 203.936238 88.822374 203.212236 90.348278 202.02084 C 92.020814 200.600329 91.768788 197.566852 90.627797 196.173835 C 89.619693 194.675425 87.447687 193.534435 84.317981 193.0258 C 81.266175 192.462178 76.216489 192.278887 72.271135 192.856255 C 68.46325 193.268662 64.22463 193.681068 62.112193 195.115325 C 60.329682 196.393785 60.829152 198.900299 61.02619 200.36205 Z M 61.02619 200.36205 " stroke="#000000" stroke-width="2" stroke-opacity="1" stroke-miterlimit="4"/><path stroke-linecap="butt" transform="matrix(0.852466, 0, 0, 0.852466, 177.254568, -26.852693)" fill-opacity="1" fill="#303030" fill-rule="nonzero" stroke-linejoin="miter" d="M 48.695242 237.121197 C 49.542966 233.785289 50.665628 226.668989 51.898264 222.751129 C 53.26837 218.732459 55.032552 216.070147 56.356835 213.921052 C 57.919396 211.923173 60.256365 211.707805 60.618366 210.314788 C 61.273634 208.51853 60.219707 205.384242 59.417806 204.289074 C 58.670892 203.258059 57.772763 202.396588 56.384328 204.5411 C 55.252502 206.653537 53.763257 212.161452 52.200696 216.725415 C 50.615222 220.968618 48.686078 226.485697 47.384707 230.953432 C 46.367438 235.205799 45.81298 241.208602 45.767157 243.142329 C 46.055842 244.865271 47.082275 243.114835 47.641315 242.120478 C 48.204937 241.126121 48.113291 240.301308 48.695242 237.121197 Z M 48.695242 237.121197 " stroke="#000000" stroke-width="2" stroke-opacity="1" stroke-miterlimit="4"/><path stroke-linecap="butt" transform="matrix(0.852466, 0, 0, 0.852466, 177.254568, -26.852693)" fill-opacity="1" fill="#303030" fill-rule="evenodd" stroke-linejoin="miter" d="M 96.703917 82.734611 C 92.17203 72.181592 85.403984 63.177388 75.904893 54.736806 C 66.158357 46.232072 48.09038 32.508107 40.144685 32.943425 C 32.263143 33.502464 24.44117 48.839396 28.661461 57.651144 C 32.822182 66.22003 53.42875 79.197081 64.357517 84.595022 C 75.034257 89.937974 84.473779 91.239345 92.914361 89.191061 C 94.156162 87.078624 95.397963 84.906617 96.703917 82.734611 Z M 96.703917 82.734611 " stroke="#000000" stroke-width="2" stroke-opacity="1" stroke-miterlimit="10"/><path stroke-linecap="butt" transform="matrix(0.852466, 0, 0, 0.852466, 177.254568, -26.852693)" fill-opacity="1" fill="#303030" fill-rule="nonzero" stroke-linejoin="miter" d="M 92.419474 80.127287 C 88.382474 70.875639 82.29719 62.682501 73.916178 55.295846 C 65.22357 47.780887 49.268029 35.427027 42.128817 35.921915 C 34.994189 36.421384 28.409435 49.952893 31.951547 57.839018 C 35.612798 65.537269 53.92822 76.960923 63.674755 81.799823 C 73.297569 86.460015 81.431137 87.825538 89.001084 85.900975 C 90.119163 83.976412 91.237242 82.051849 92.419474 80.127287 Z M 92.419474 80.127287 " stroke="#000000" stroke-width="2" stroke-opacity="1" stroke-miterlimit="4"/><path stroke-linecap="butt" transform="matrix(0.852466, 0, 0, 0.852466, 177.254568, -26.852693)" fill-opacity="1" fill="#303030" fill-rule="evenodd" stroke-linejoin="miter" d="M 92.295752 90.739875 C 85.403984 83.293651 77.394138 78.01485 67.336006 74.665195 C 57.277875 71.123083 38.65544 66.655348 32.75803 70.564043 C 26.672746 74.413169 25.742541 91.486789 31.639951 97.631643 C 37.537361 103.409913 57.589471 106.324251 67.835476 106.388403 C 77.765303 106.324251 85.527706 103.840649 91.360964 98.254834 C 91.677142 95.771232 91.984156 93.28763 92.295752 90.739875 Z M 92.295752 90.739875 " stroke="#000000" stroke-width="2" stroke-opacity="1" stroke-miterlimit="10"/><path stroke-linecap="butt" transform="matrix(0.852466, 0, 0, 0.852466, 177.254568, -26.852693)" fill-opacity="1" fill="#303030" fill-rule="nonzero" stroke-linejoin="miter" d="M 88.13503 90.30914 C 81.990177 83.728968 74.910535 78.945055 65.970483 75.966566 C 56.782988 72.67648 40.703725 69.074798 35.241632 72.364884 C 29.655818 75.783274 29.156348 90.991901 34.247275 96.453994 C 39.526076 101.732794 57.342027 104.092675 66.405801 104.216397 C 75.286283 104.275966 82.178051 101.856516 87.328547 96.948881 C 87.575991 94.776875 87.828017 92.545298 88.13503 90.30914 Z M 88.13503 90.30914 " stroke="#000000" stroke-width="2" stroke-opacity="1" stroke-miterlimit="4"/><path stroke-linecap="butt" transform="matrix(0.852466, 0, 0, 0.852466, 177.254568, -26.852693)" fill-opacity="1" fill="#303030" fill-rule="evenodd" stroke-linejoin="miter" d="M 92.355321 100.051093 C 82.732508 96.948881 73.114277 96.137815 62.74455 98.12653 C 52.067809 99.986941 34.063983 104.954146 30.521872 111.351025 C 27.108064 117.619601 34.618441 132.95195 42.752009 135.563857 C 50.761856 137.795433 69.819609 130.408778 78.635939 125.629448 C 87.452269 120.662243 92.731069 114.764833 95.210089 107.00243 C 94.279884 104.706702 93.349679 102.410973 92.355321 100.051093 Z M 92.355321 100.051093 " stroke="#000000" stroke-width="2" stroke-opacity="1" stroke-miterlimit="10"/><path stroke-linecap="butt" transform="matrix(0.852466, 0, 0, 0.852466, 177.254568, -26.852693)" fill-opacity="1" fill="#303030" fill-rule="nonzero" stroke-linejoin="miter" d="M 88.510778 101.668642 C 80.065614 98.754304 71.373006 98.254834 62.18551 99.931953 C 52.686419 101.609072 36.666725 106.017237 33.564513 111.726773 C 30.709745 117.376739 37.042473 130.848678 44.429128 133.208559 C 51.568339 135.256843 68.330364 128.488798 76.276058 124.392229 C 84.033879 120.048216 88.877362 114.769415 91.049368 107.877648 C 90.247467 105.829363 89.376832 103.781079 88.510778 101.668642 Z M 88.510778 101.668642 " stroke="#000000" stroke-width="2" stroke-opacity="1" stroke-miterlimit="4"/><path stroke-linecap="butt" transform="matrix(0.852466, 0, 0, 0.852466, 177.254568, -26.852693)" fill-opacity="1" fill="#303030" fill-rule="evenodd" stroke-linejoin="miter" d="M 97.881566 108.00137 C 88.881944 108.931575 80.684223 112.221661 73.297569 117.871627 C 65.72304 123.709467 53.181306 134.821526 53.121736 141.837015 C 52.998014 148.60506 65.535166 158.782331 73.050125 157.975848 C 80.624654 156.674477 92.236182 143.014664 97.56997 135.440135 C 102.660896 127.870188 104.278446 120.355229 103.096214 112.904422 C 101.359526 111.291456 99.618254 109.678489 97.881566 108.00137 Z M 97.881566 108.00137 " stroke="#000000" stroke-width="2" stroke-opacity="1" stroke-miterlimit="10"/><path stroke-linecap="butt" transform="matrix(0.852466, 0, 0, 0.852466, 177.254568, -26.852693)" fill-opacity="1" fill="#303030" fill-rule="nonzero" stroke-linejoin="miter" d="M 95.462116 110.92029 C 87.516421 111.850495 80.248906 114.457819 73.668734 119.672468 C 66.841119 124.580103 55.916934 134.945248 55.729061 140.966379 C 55.729061 146.987511 66.657827 155.991715 73.42129 155.308954 C 80.001462 154.190874 90.618633 142.024889 95.214672 135.316413 C 99.682407 128.488798 101.235804 122.032348 100.117724 115.264303 C 98.56891 113.83921 97.015513 112.409535 95.462116 110.92029 Z M 95.462116 110.92029 " stroke="#000000" stroke-width="2" stroke-opacity="1" stroke-miterlimit="4"/><path stroke-linecap="butt" transform="matrix(0.852466, 0, 0, 0.852466, 177.254568, -26.852693)" fill-opacity="1" fill="#303030" fill-rule="evenodd" stroke-linejoin="miter" d="M 133.018582 80.251009 L 118.68059 109.86178 C 115.266782 113.775058 111.600948 116.382382 107.440227 117.000992 C 102.972492 117.688335 97.139234 116.87727 93.537553 114.086654 C 90.000023 110.92029 87.704295 105.394046 86.893229 99.68451 C 85.963024 93.910822 85.403984 86.336293 88.322904 80.562605 C 91.177672 74.788916 98.252731 67.709275 104.273863 65.537269 C 110.111703 63.113236 118.68059 64.483341 123.51949 66.962362 C 128.427125 69.386394 131.281893 73.734989 133.018582 80.251009 Z M 133.018582 80.251009 " stroke="#000000" stroke-width="2" stroke-opacity="1" stroke-miterlimit="10"/><path stroke-linecap="butt" transform="matrix(0.852466, 0, 0, 0.852466, 177.254568, -26.852693)" fill-opacity="1" fill="#303030" fill-rule="nonzero" stroke-linejoin="miter" d="M 130.970297 83.046207 L 117.869524 108.624562 C 115.450074 112.162091 112.407432 114.393667 108.741598 115.081011 C 104.832903 115.823342 99.059215 115.016859 95.769129 112.904422 C 92.291169 110.42082 89.995441 106.571695 89.124806 101.357046 C 88.1946 96.018676 87.635561 88.072981 90.554481 82.299293 C 93.597123 76.337731 100.672182 69.574268 106.510022 67.273957 C 112.031684 65.161521 119.111325 66.83864 123.395768 69.633838 C 127.368616 72.181592 129.97594 76.649327 130.970297 83.046207 Z M 130.970297 83.046207 " stroke="#000000" stroke-width="2" stroke-opacity="1" stroke-miterlimit="4"/><path stroke-linecap="butt" transform="matrix(0.852466, 0, 0, 0.852466, 177.254568, -26.852693)" fill-opacity="1" fill="#303030" fill-rule="evenodd" stroke-linejoin="miter" d="M 154.129202 106.081389 C 149.537745 108.564992 144.941706 109.990085 139.667488 110.86072 C 134.388687 111.47933 127.432768 111.731356 123.088755 110.672846 C 118.56145 109.678489 114.767312 107.9418 113.158928 104.527992 C 111.358087 100.738437 110.982339 94.158265 113.465941 88.884047 C 115.954126 83.417373 120.857179 76.342313 127.932238 72.681062 C 134.759853 68.891507 145.936063 66.407904 154.752393 66.655348 C 163.504571 66.7195 174.621212 69.762142 179.707556 73.423393 C 184.674761 76.965505 185.980714 81.868558 184.120304 88.137133 C 174.121742 94.098695 164.127763 100.055675 154.129202 106.081389 Z M 154.129202 106.081389 " stroke="#000000" stroke-width="2" stroke-opacity="1" stroke-miterlimit="10"/><path stroke-linecap="butt" transform="matrix(0.852466, 0, 0, 0.852466, 177.254568, -26.852693)" fill-opacity="1" fill="#303030" fill-rule="nonzero" stroke-linejoin="miter" d="M 155.118977 104.340118 C 152.016765 106.017237 148.355514 107.506482 143.447879 108.312966 C 138.356952 109.183601 130.718271 109.866363 126.067245 109.431045 C 121.347484 108.807853 117.993246 107.506482 116.256557 104.52341 C 114.455716 101.173755 113.218498 95.276345 115.633365 90.185418 C 117.933676 84.906617 123.336199 77.643684 130.163814 73.918281 C 136.743985 70.005003 147.361156 68.020871 155.554294 68.208745 C 163.564141 68.392037 174.364604 71.622553 178.901073 75.03636 C 183.368808 78.326446 184.670179 82.610889 182.557742 88.137133 C 173.434398 93.539656 164.306472 98.937596 155.118977 104.340118 Z M 155.118977 104.340118 " stroke="#000000" stroke-width="2" stroke-opacity="1" stroke-miterlimit="4"/><path fill="#303030" d="M 320.230469 77.171875 C 317.847656 76.484375 315.785156 75.164062 313.246094 72.621094 C 310.753906 70.027344 306.574219 65.847656 305.570312 62.355469 C 304.300781 58.808594 303.082031 55 306.785156 51.507812 C 310.652344 47.75 319.914062 41.925781 328.273438 40.976562 C 336.371094 40.074219 349.761719 42.507812 355.582031 46.265625 C 361.035156 49.917969 362.515625 57.539062 362.464844 62.777344 C 362.410156 67.859375 360.453125 72.410156 356.007812 76.644531 C 344.097656 76.804688 332.191406 76.960938 320.230469 77.175781 Z M 320.230469 77.171875 " fill-opacity="1" fill-rule="evenodd"/><g clip-path="url(#806cb2ac24)"><path stroke-linecap="butt" transform="matrix(0.852466, 0, 0, 0.852466, 177.254568, -26.852693)" fill="none" stroke-linejoin="miter" d="M 167.72028 122.027766 C 164.925082 121.221283 162.505632 119.672468 159.527142 116.689396 C 156.603639 113.646754 151.700587 108.743701 150.522938 104.647132 C 149.033693 100.486411 147.604018 96.018676 151.948031 91.922107 C 156.4845 87.513942 167.349114 80.681744 177.15522 79.568247 C 186.654311 78.509738 202.362409 81.364506 209.190024 85.772671 C 215.586904 90.057114 217.323592 98.997166 217.264023 105.14202 C 217.19987 111.103582 214.904142 116.441952 209.689494 121.409157 C 195.718085 121.597031 181.751259 121.780322 167.72028 122.032348 Z M 167.72028 122.027766 " stroke="#000000" stroke-width="2" stroke-opacity="1" stroke-miterlimit="10"/></g><path stroke-linecap="butt" transform="matrix(0.852466, 0, 0, 0.852466, 177.254568, -26.852693)" fill-opacity="1" fill="#303030" fill-rule="nonzero" stroke-linejoin="miter" d="M 170.208465 121.720752 C 167.417849 120.973839 164.993816 119.172998 162.015326 116.31823 C 158.908532 113.33974 154.321658 108.308383 153.011122 104.335536 C 151.833473 100.051093 150.715394 96.018676 154.940267 92.233703 C 158.972684 88.256273 168.531346 82.794181 177.164384 81.799823 C 185.604966 80.745896 199.571793 82.299293 205.909103 86.212571 C 211.994387 90.121266 214.542141 98.937596 214.725433 104.958728 C 214.972876 110.796568 212.365552 116.134938 207.150904 121.225865 C 194.856614 121.349587 182.566907 121.532878 170.208465 121.720752 Z M 170.208465 121.720752 " stroke="#000000" stroke-width="2" stroke-opacity="1" stroke-miterlimit="4"/><path fill="#303030" d="M 313.878906 90.191406 C 313.03125 85.691406 313.351562 81.882812 315.253906 78.761719 C 316.949219 75.480469 318.800781 72.675781 324.675781 71.136719 C 330.707031 69.445312 343.199219 67.804688 350.5 69.074219 C 357.4375 70.238281 362.726562 71.878906 366.589844 77.859375 C 370.347656 83.679688 374.050781 96.277344 373.203125 104.214844 C 372.042969 112.101562 365.636719 120.410156 360.714844 124.855469 C 355.6875 129.144531 350.183594 130.625 343.621094 129.726562 L 316.207031 92.996094 Z M 313.878906 90.191406 " fill-opacity="1" fill-rule="evenodd"/><g clip-path="url(#73f8421102)"><path stroke-linecap="butt" transform="matrix(0.852466, 0, 0, 0.852466, 177.254568, -26.852693)" fill="none" stroke-linejoin="miter" d="M 160.269473 137.300546 C 159.275116 132.021745 159.650864 127.55401 161.88244 123.892759 C 163.871155 120.043634 166.043161 116.753548 172.934929 114.948125 C 180.009988 112.963992 194.664158 111.039429 203.228462 112.528674 C 211.366613 113.894197 217.571036 115.81876 222.102923 122.834249 C 226.511088 129.661865 230.855101 144.439757 229.860744 153.750974 C 228.499803 163.002622 220.984844 172.749158 215.211156 177.963806 C 209.313746 182.995163 202.857296 184.731851 195.159045 183.677924 L 163.000519 140.590631 Z M 160.269473 137.300546 " stroke="#000000" stroke-width="2" stroke-opacity="1" stroke-miterlimit="10"/></g><path fill="#303030" d="M 316.054688 82.253906 C 316.53125 78.390625 319.230469 75.640625 324.941406 73.785156 C 330.394531 71.828125 342.515625 70.398438 349.289062 71.351562 C 356.011719 72.25 361.671875 74.316406 365.429688 79.554688 C 369.082031 84.742188 371.832031 95.007812 371.039062 102.417969 C 369.980469 109.667969 364.6875 118.453125 360.03125 122.847656 C 355.265625 126.976562 349.710938 128.667969 342.9375 127.714844 L 314.835938 91.515625 L 316.050781 82.253906 Z M 316.054688 82.253906 " fill-opacity="1" fill-rule="nonzero"/><g clip-path="url(#5b0b9e3846)"><path stroke-linecap="butt" transform="matrix(0.852466, 0, 0, 0.852466, 177.254568, -26.852693)" fill="none" stroke-linejoin="miter" d="M 162.82181 127.989328 C 163.380849 123.457441 166.547213 120.231507 173.246524 118.054919 C 179.643404 115.75919 193.862257 114.082071 201.807951 115.200151 C 209.694076 116.254078 216.333817 118.67811 220.741982 124.822964 C 225.026425 130.908248 228.252359 142.950512 227.322154 151.64312 C 226.080353 160.147854 219.871347 170.453429 214.409255 175.608508 C 208.818858 180.451991 202.302839 182.436123 194.357144 181.318044 L 161.392135 138.853943 L 162.817228 127.989328 Z M 162.82181 127.989328 " stroke="#000000" stroke-width="2" stroke-opacity="1" stroke-miterlimit="4"/></g><path fill="#303030" d="M 293.351562 115.332031 C 292.558594 112.15625 292.296875 109.085938 292.769531 106.332031 C 293.089844 103.527344 293.933594 100.988281 295.734375 98.5 C 297.324219 95.800781 299.28125 92.203125 303.035156 90.5625 C 306.582031 88.65625 311.03125 86.855469 317.804688 88.023438 C 324.683594 89.132812 337.492188 93.367188 343.367188 97.867188 C 348.765625 102.363281 349.925781 109.507812 351.144531 114.800781 C 352.097656 119.828125 351.832031 124.804688 350.351562 128.507812 C 348.921875 132 347.015625 134.59375 342.570312 136.710938 C 337.914062 138.828125 331.511719 140.46875 322.9375 141.421875 C 313.09375 132.742188 303.25 124.0625 293.351562 115.332031 Z M 293.351562 115.332031 " fill-opacity="1" fill-rule="nonzero"/><g clip-path="url(#3d9d00283d)"><path stroke-linecap="butt" transform="matrix(0.852466, 0, 0, 0.852466, 177.254568, -26.852693)" fill="none" stroke-linejoin="miter" d="M 136.189528 166.792178 C 135.259323 163.066774 134.952309 159.465093 135.506766 156.234577 C 135.882514 152.944491 136.872289 149.966001 138.984726 147.047081 C 140.849719 143.880717 143.145447 139.660426 147.54903 137.735863 C 151.709751 135.499705 156.928982 133.387268 164.874677 134.757374 C 172.944093 136.058744 187.969429 141.025949 194.861196 146.30475 C 201.193924 151.578968 202.554865 159.95998 203.98454 166.168986 C 205.102619 172.066396 204.791023 177.904236 203.054335 182.248249 C 201.377216 186.344818 199.141057 189.38746 193.926409 191.871063 C 188.464317 194.354665 180.95394 196.279228 170.895809 197.397307 C 159.348432 187.215454 147.801056 177.033601 136.189528 166.792178 Z M 136.189528 166.792178 " stroke="#000000" stroke-width="2" stroke-opacity="1" stroke-miterlimit="10"/></g><path stroke-linecap="butt" transform="matrix(0.852466, 0, 0, 0.852466, 177.254568, -26.852693)" fill-opacity="1" fill="#303030" fill-rule="nonzero" stroke-linejoin="miter" d="M 60.384669 216.102223 C 53.92822 215.602754 48.961015 215.543184 44.800294 215.914349 C 40.580003 216.102223 38.0964 216.473389 35.924394 218.026786 C 33.564513 219.516031 32.011116 221.875911 31.268785 225.101845 C 28.038269 227.338004 24.624462 229.697884 20.775336 232.42893 C 16.742919 234.972102 12.082728 238.078896 8.481046 240.993234 C 4.819795 243.72428 1.030239 246.583631 -0.518575 249.56212 C -2.136124 252.604762 -2.319416 255.523683 -1.077615 258.813768 C -3.625369 261.732688 -5.050462 264.899052 -6.04482 268.31286 C -6.975025 271.602946 -5.921098 273.59166 -6.480137 278.801727 C -7.222469 284.020957 -8.899588 292.461539 -10.081819 299.353307 C -11.319038 305.99763 -13.80264 314.319073 -13.678918 318.598934 C -13.678918 322.635933 -12.437117 324.560496 -9.953515 324.125178 C -12.812865 325.431131 -14.92072 329.216105 -16.533686 336.172024 C -18.334527 342.935487 -20.075798 355.165625 -19.393037 364.976312 C -18.646123 374.787 -16.845282 384.221939 -12.065952 394.215918 C -7.286621 403.838732 3.701716 417.186949 8.174033 423.455524 C 12.270602 429.60496 13.823999 432.276437 12.829642 431.465371 C 12.330172 425.320517 11.152523 420.289161 9.539556 415.885578 C 7.491271 411.353691 3.765868 410.17146 2.647789 405.392129 C 1.777153 400.424924 3.518424 394.403792 3.83002 387.571595 C 3.88959 380.68441 3.518424 373.045729 2.959384 364.417273 C 6.002026 373.852212 8.174033 381.490893 9.72743 387.823621 C 11.028801 393.968475 10.905079 395.39815 11.528271 401.918751 C 12.023158 408.375201 12.641768 416.627909 13.141237 426.68604 C 17.856416 420.729061 21.52225 413.649419 24.129574 404.768937 C 26.672746 395.769315 30.150706 385.651614 28.597309 373.72849 C 26.736898 361.562505 22.081289 348.33801 13.883569 333.06523 C 13.947721 332.075455 13.636125 330.833654 12.70592 329.591852 C 11.711562 328.226329 10.346039 326.860806 8.357324 325.24784 C 9.415834 322.081476 9.787 317.920754 9.72743 312.770258 C 9.539556 307.244014 7.555423 300.352246 7.614993 294.019519 C 7.679145 287.686791 10.098596 281.166189 9.851152 275.891971 C 9.292112 270.613171 7.614993 266.205005 4.572351 262.667476 C 8.485629 259.560682 11.58784 256.646344 13.888151 253.663272 C 15.996005 250.56106 15.560688 248.017888 18.108442 245.094386 C 20.651614 241.868452 25.930415 238.702088 28.908905 235.84732 C 31.580381 233.052122 33.504944 230.56852 34.435149 228.396513 C 39.15491 229.514592 43.686797 229.821606 47.783366 229.326718 C 51.944087 228.767679 55.669491 227.402156 59.20702 225.230149 C 59.578186 222.187507 59.949352 219.144865 60.384669 216.102223 Z M 60.384669 216.102223 " stroke="#000000" stroke-width="2" stroke-opacity="1" stroke-miterlimit="10"/><path stroke-linecap="butt" transform="matrix(0.852466, 0, 0, 0.852466, 177.254568, -26.852693)" fill-opacity="1" fill="#303030" fill-rule="nonzero" stroke-linejoin="miter" d="M 58.153093 216.849137 C 53.433332 216.354249 49.153471 216.354249 45.55179 216.849137 C 41.826386 217.224885 38.288857 218.342964 36.112268 219.703905 C 33.81654 221.197732 32.515169 222.934421 32.203573 225.418023 L 32.945904 226.47195 C 34.746745 226.907268 36.799612 227.278434 39.590228 227.342586 C 42.261704 227.283016 46.046677 227.466308 49.025167 226.907268 C 51.944087 226.348229 54.551411 225.353871 57.099166 223.928778 C 57.406179 221.568898 57.781927 219.209017 58.153093 216.849137 Z M 58.153093 216.849137 " stroke="#000000" stroke-width="2" stroke-opacity="1" stroke-miterlimit="4"/><path stroke-linecap="butt" transform="matrix(0.852466, 0, 0, 0.852466, 177.254568, -26.852693)" fill-opacity="1" fill="#303030" fill-rule="nonzero" stroke-linejoin="miter" d="M 31.575799 227.09056 C 29.77954 227.461726 27.172216 229.138844 23.506382 231.434573 C 19.721409 233.858605 13.448251 237.955175 9.72743 241.30483 C 6.002026 244.100028 2.588219 246.959379 1.158544 249.873716 C -0.518575 252.852206 -0.830171 255.775709 0.228338 258.87792 C 1.282265 259.065794 2.088749 259.620252 2.647789 260.055569 C 3.206828 260.490887 3.33055 261.049927 3.27098 261.732688 C 7.550841 257.883563 10.410191 254.717199 12.518046 251.986153 C 14.383039 249.067233 12.70592 247.70171 14.942078 245.218108 C 17.178237 242.551214 22.081289 240.067611 25.307223 237.084539 C 28.414017 234.170201 30.773898 231.127559 33.133778 227.961195 C 32.634308 227.709169 32.134838 227.402156 31.580381 227.09056 Z M 31.575799 227.09056 " stroke="#000000" stroke-width="2" stroke-opacity="1" stroke-miterlimit="4"/><path stroke-linecap="butt" transform="matrix(0.852466, 0, 0, 0.852466, 177.254568, -26.852693)" fill-opacity="1" fill="#303030" fill-rule="nonzero" stroke-linejoin="miter" d="M -0.642297 259.771467 C -0.0832576 259.647745 0.35206 259.954759 1.158544 260.701673 C 1.717583 261.19656 2.524067 261.879322 3.577994 263.680163 C 4.448629 265.293129 6.185318 267.222274 6.86808 270.883526 C 7.303397 274.544777 6.991801 281.500697 6.86808 285.28567 C 6.556484 288.887352 5.378835 289.634265 5.502556 292.796047 C 5.442987 295.838689 6.620636 300.370576 7.115523 304.036409 C 7.550841 307.697661 7.486689 311.111468 7.614993 314.525276 C 7.486689 317.943666 7.239245 321.11003 6.86808 324.276394 C 4.631921 323.341606 2.583636 322.846718 -0.0236878 322.782566 C -2.631012 322.663427 -5.297906 322.782566 -8.280978 323.405758 C -9.958097 323.282036 -11.012024 322.475553 -11.447342 320.986308 C -12.130104 319.245037 -11.630634 317.63207 -11.135746 314.218262 C -10.640859 310.492859 -9.399058 305.218641 -8.157256 300.311006 C -7.162899 295.407953 -5.238336 290.628623 -4.555575 285.720988 C -4.060687 280.506339 -4.803018 274.485207 -4.431853 270.759804 C -4.060687 266.974831 -3.1259 265.421434 -2.319416 263.684745 C -1.700807 261.7556 -1.141767 260.454229 -0.642297 259.771467 Z M -0.642297 259.771467 " stroke="#000000" stroke-width="2" stroke-opacity="1" stroke-miterlimit="4"/><path stroke-linecap="butt" transform="matrix(0.852466, 0, 0, 0.852466, 177.254568, -26.852693)" fill-opacity="1" fill="#303030" fill-rule="nonzero" stroke-linejoin="miter" d="M 15.780638 420.90777 C 16.962869 416.751631 18.699558 411.784426 20.312525 405.763295 C 21.989644 399.490137 25.091855 391.544442 26.026643 385.028423 C 26.768974 378.384099 26.585683 374.3471 24.784842 367.207889 C 22.796127 360.068677 17.022439 348.897049 14.167671 342.559739 C 11.312903 335.919998 9.200466 331.511833 7.08803 328.657065 C 4.485288 325.738145 1.690089 325.614423 -0.110751 325.926019 C -1.84744 325.985589 -3.212963 327.415264 -3.277115 330.453323 C -3.652863 333.683839 -2.970102 338.092004 -1.476274 344.365162 C -0.110751 350.322142 3.238904 358.643585 5.475063 365.966087 C 7.587499 373.045729 9.883228 380.556106 11.436625 386.829263 C 12.678426 392.909965 13.672783 396.575799 14.167671 402.596931 C 14.662558 408.618063 14.662558 415.01036 14.415115 422.525319 C 14.850432 422.025849 15.28575 421.46681 15.780638 420.90777 Z M 15.780638 420.90777 " stroke="#000000" stroke-width="2" stroke-opacity="1" stroke-miterlimit="4"/><path stroke-linecap="butt" transform="matrix(0.852466, 0, 0, 0.852466, 177.254568, -26.852693)" fill-opacity="1" fill="#303030" fill-rule="nonzero" stroke-linejoin="miter" d="M 11.170852 424.848541 C 9.370011 420.875694 7.633322 417.526038 5.956203 414.79041 C 4.091211 411.999794 1.795482 411.317033 0.988999 408.210239 C 0.182515 404.672709 1.236443 400.0171 1.548038 394.985743 C 1.67176 389.958969 1.919204 384.244851 2.042926 378.535315 C 2.042926 372.637905 1.983356 366.740495 1.855052 360.343615 C 0.242085 355.688006 -1.059286 351.343993 -2.053643 347.311576 C -3.171722 343.150855 -4.042358 339.301729 -4.413524 335.759618 C -4.848841 332.162518 -5.032133 328.86785 -4.72512 325.893943 C -6.214364 325.206599 -7.579888 325.706069 -9.069132 327.378605 C -10.682099 328.86785 -12.48294 330.233373 -13.724741 335.328882 C -15.278138 340.419809 -16.643661 350.349636 -16.891105 357.488847 C -17.202701 364.380614 -16.643661 369.966428 -15.218569 376.862778 C -13.912615 383.566671 -11.181569 391.75981 -8.450523 397.845094 C -5.843199 403.618782 -2.800557 407.962795 0.677403 412.558834 C 3.967489 416.966999 7.381296 421.063568 11.170852 424.853124 Z M 11.170852 424.848541 " stroke="#000000" stroke-width="2" stroke-opacity="1" stroke-miterlimit="4"/><path stroke-linecap="butt" transform="matrix(0.852466, 0, 0, 0.852466, 177.254568, -26.852693)" fill-opacity="1" fill="#303030" fill-rule="nonzero" stroke-linejoin="miter" d="M 138.668548 167.791117 C 137.486317 164.249006 136.931859 161.023072 137.243455 157.856708 C 137.426747 154.626192 138.297382 151.711854 140.098223 148.852504 C 141.587468 145.62657 143.635753 142.148611 147.66817 140.100326 C 151.828891 137.92832 157.290983 135.815883 165.053386 137.121836 C 172.687485 138.363637 186.906337 142.831372 193.115343 147.862729 C 199.136475 152.889503 199.942958 160.34031 201.308481 166.361442 C 202.426561 172.075561 201.555925 178.467858 200.378276 182.440705 C 198.824879 186.166109 198.077965 188.090672 193.115343 190.143538 C 188.024416 192.191823 180.385736 193.86436 170.203882 194.922869 C 159.710433 185.918665 149.221567 176.854891 138.668548 167.791117 Z M 138.668548 167.791117 " stroke="#000000" stroke-width="2" stroke-opacity="1" stroke-miterlimit="4"/><path stroke-linecap="butt" transform="matrix(0.852466, 0, 0, 0.852466, 177.254568, -26.852693)" fill-opacity="1" fill="#303030" fill-rule="nonzero" stroke-linejoin="miter" d="M 123.831086 173.060753 C 123.831086 173.060753 122.094397 188.764269 121.906523 196.526671 C 121.782802 204.348644 123.707364 212.170617 123.024603 219.43355 C 122.341841 226.696483 120.728874 234.706329 117.997828 239.797256 C 115.198048 244.764461 111.6651 246.872315 106.633744 249.355917 C 101.542817 251.83952 93.597123 253.145473 87.883004 254.570566 C 82.113899 256.000241 77.334568 255.564923 72.426933 257.924804 C 67.459728 260.284684 62.556676 265.746776 58.519676 268.482405 C 54.487259 271.213451 49.955372 275.681186 48.278254 274.127789 C 46.601135 272.514822 47.966658 264.321683 48.401975 259.042883 C 48.901445 253.704513 50.638134 248.24242 50.94973 242.592454 C 51.197174 237.002058 48.401975 231.787409 50.014942 225.706708 C 51.632491 219.621424 54.734703 212.670087 60.384669 206.461081 C 66.098788 200.311645 76.528084 193.795625 83.603144 188.952143 C 90.618633 184.172812 95.585837 180.6307 102.353883 177.899654 C 109.117346 175.23276 123.831086 173.060753 123.831086 173.060753 Z M 123.831086 173.060753 " stroke="#000000" stroke-width="2" stroke-opacity="1" stroke-miterlimit="10"/><path stroke-linecap="butt" transform="matrix(0.852466, 0, 0, 0.852466, 177.254568, -26.852693)" fill-opacity="1" fill="#303030" fill-rule="nonzero" stroke-linejoin="miter" d="M 121.911106 174.930329 C 121.911106 174.930329 120.174417 187.779076 120.046113 195.605631 C 119.922391 203.427603 121.787384 211.185424 121.168774 218.512509 C 120.481431 225.775442 118.804312 233.785289 116.073266 238.812063 C 113.342219 243.84342 109.80469 245.955857 104.713763 248.439459 C 99.622837 250.918479 91.741294 252.224432 85.967606 253.654107 C 80.193918 255.0792 77.462872 253.837399 72.555237 256.197279 C 67.652185 258.55716 63.679337 263.212769 59.642338 265.943815 C 55.545769 268.674861 50.578564 274.324827 48.901445 272.77143 C 47.228909 271.098893 49.336763 265.572649 49.836233 260.293849 C 50.33112 254.955478 52.067809 249.493386 52.379405 243.90299 C 52.626849 238.317176 49.836233 233.042957 51.4492 227.017243 C 53.002597 220.936542 56.168961 213.921052 61.814344 207.776199 C 67.468893 201.567193 77.95776 195.046591 85.032819 190.26726 C 92.048308 185.423778 97.020095 181.886248 103.783558 179.219354 C 110.551604 176.547878 121.911106 174.930329 121.911106 174.930329 Z M 121.911106 174.930329 " stroke="#000000" stroke-width="2" stroke-opacity="1" stroke-miterlimit="4"/><path stroke-linecap="butt" transform="matrix(0.852466, 0, 0, 0.852466, 177.254568, -26.852693)" fill-opacity="1" fill="#303030" fill-rule="evenodd" stroke-linejoin="miter" d="M 50.761856 268.981875 C 50.514412 269.97165 54.610981 256.563863 59.949352 247.188493 C 65.164 237.441958 74.044482 222.357052 81.554859 212.482213 C 88.941514 202.428664 98.376453 194.047651 104.090572 188.521407 C 109.428942 183.118885 115.198048 180.140395 114.707742 180.323686 C 113.960829 180.447408 106.569592 183.801646 100.924208 188.952143 C 95.210089 193.919347 87.640143 200.687393 81.059971 209.503723 C 74.227774 218.072609 66.593675 230.362316 61.502749 240.420448 C 56.2881 250.290705 50.94973 267.799643 50.761856 268.981875 Z M 50.761856 268.981875 " stroke="#000000" stroke-width="2" stroke-opacity="1" stroke-miterlimit="10"/><path stroke-linecap="butt" transform="matrix(0.852466, 0, 0, 0.852466, 177.254568, -26.852693)" fill-opacity="1" fill="#303030" fill-rule="nonzero" stroke-linejoin="miter" d="M 102.84877 180.759004 C 102.84877 175.296912 104.654194 170.888747 108.503319 167.534509 C 112.347862 164.061132 119.363351 161.265933 125.696079 160.583172 C 131.909667 159.652967 139.420044 160.894768 145.62905 162.631457 C 151.521877 164.308575 156.493664 166.728026 161.520439 170.824595 C 166.487644 174.861594 172.256749 181.877083 175.739291 186.596844 C 179.148517 191.252453 180.889788 195.037426 181.879563 198.451234 C 182.566907 201.558028 183.061794 202.799829 180.766066 206.461081 C 178.282463 210.122332 172.632497 216.271768 168.164762 220.556211 C 163.568723 224.71235 159.472154 227.942866 154.440797 231.232952 C 149.354453 234.335164 144.263527 236.882918 138.485256 239.613964 C 132.404555 242.097567 123.89982 247.000619 119.427503 246.876897 C 115.019338 246.565301 113.406372 242.90405 112.16457 238.495885 C 110.863199 233.716554 111.234365 226.389469 111.358087 219.868868 C 111.170213 213.352848 110.986921 206.768094 111.981279 199.880909 C 113.035206 192.677546 114.712325 185.662057 117.502941 177.904236 C 115.207212 177.963806 112.851914 178.15168 110.427882 178.71072 C 107.880127 179.146037 105.520247 179.828799 102.84877 180.759004 Z M 102.84877 180.759004 " stroke="#000000" stroke-width="2" stroke-opacity="1" stroke-miterlimit="10"/><path stroke-linecap="butt" transform="matrix(0.852466, 0, 0, 0.852466, 177.254568, -26.852693)" fill-opacity="1" fill="#303030" fill-rule="nonzero" stroke-linejoin="miter" d="M 104.090572 179.329329 C 104.338015 174.238402 106.44587 170.265555 110.547021 167.351217 C 112.28371 166.168986 115.390504 164.427715 117.997828 163.561662 C 121.723232 162.37943 125.196609 162.260291 128.738721 162.008265 C 134.571979 161.577529 140.098223 162.691026 145.624467 164.679741 C 151.08656 166.668456 156.548652 169.770668 161.392135 173.807667 C 166.171465 177.904236 170.950796 184.296534 174.11716 188.828421 C 177.347676 193.300738 179.583834 197.585181 180.449888 200.627823 C 181.320523 203.730035 181.444245 203.913326 179.212669 207.143842 C 176.912358 210.310206 171.13867 215.960172 167.042101 219.745146 C 162.945532 223.534701 159.591294 226.577343 154.747811 229.679555 C 149.844758 232.786349 143.947349 235.517395 138.045356 238.184289 C 132.088377 240.855765 123.45992 245.635096 119.422921 245.447222 C 115.326352 245.26393 115.014756 241.414805 113.896677 237.06621 C 112.778597 232.722197 112.84275 225.954151 112.778597 219.745146 C 112.719028 213.47657 112.590724 207.267564 113.585081 200.004631 C 114.579438 192.741698 116.320709 185.043447 118.799729 176.538713 C 116.444431 176.538713 114.144121 176.850309 111.6651 177.281044 C 109.176916 177.780514 106.762048 178.463276 104.090572 179.329329 Z M 104.090572 179.329329 " stroke="#000000" stroke-width="2" stroke-opacity="1" stroke-miterlimit="4"/><path stroke-linecap="butt" transform="matrix(0.852466, 0, 0, 0.852466, 177.254568, -26.852693)" fill-opacity="1" fill="#303030" fill-rule="evenodd" stroke-linejoin="miter" d="M 121.15961 176.2317 C 122.896298 175.237342 125.320331 174.178833 128.422543 173.065336 C 131.465185 171.759382 135.126436 170.33429 139.410879 169.27578 C 143.447879 168.221853 147.791892 167.291648 152.694944 166.732608 L 148.722097 164.184854 C 142.265647 165.550377 136.679833 166.980052 132.212098 168.469297 C 127.551907 169.83482 123.890656 171.388217 121.466623 172.877462 C 118.863881 174.302555 117.434206 175.920104 117.18218 177.468918 L 117.493776 178.586998 C 118.676007 177.844666 119.917809 177.038183 121.15961 176.2317 Z M 121.15961 176.2317 " stroke="#000000" stroke-width="2" stroke-opacity="1" stroke-miterlimit="10"/><path stroke-linecap="butt" transform="matrix(0.852466, 0, 0, 0.852466, 177.254568, -26.852693)" fill-opacity="1" fill="#303030" fill-rule="nonzero" stroke-linejoin="miter" d="M 126.690436 233.162097 C 127.808516 232.415183 129.297761 231.920296 130.91531 232.351031 C 132.464124 232.726779 134.393269 232.538905 136.436972 234.898786 C 138.549408 237.011222 141.899064 242.225871 143.388309 245.268513 C 144.698844 248.182851 145.005858 250.483161 144.323096 252.407724 C 147.242017 255.450366 149.661467 259.546935 151.58603 264.697431 C 153.44644 269.788358 154.940267 277.298735 155.558877 283.136575 C 155.934625 288.850693 155.499307 294.995547 154.257506 298.904242 C 152.891983 302.570076 150.962838 304.865804 147.984348 305.548566 C 150.403798 313.805856 151.650182 321.192511 151.462308 327.960556 C 151.02699 334.540728 150.46795 340.50229 146.678395 345.593217 C 142.833852 350.555839 137.119733 354.904434 129.050317 358.382394 C 130.35627 371.478585 130.479992 383.025961 129.174039 393.267384 C 127.808516 403.389667 125.260761 410.716752 121.292496 419.592652 C 117.255497 428.468552 113.841689 437.536908 105.025359 446.101212 C 95.957003 454.482224 83.919322 461.997183 67.959198 469.319686 C 75.286283 453.552019 80.441362 442.751557 83.919322 436.666273 C 87.145255 430.580989 87.209407 434.617988 88.199183 432.693425 C 89.19354 430.457267 88.322904 427.290903 89.940454 424.188691 C 91.429698 420.774884 95.402546 417.296924 96.827639 413.759394 C 97.945718 410.281435 95.338394 406.991349 96.708499 403.389667 C 97.821996 399.41682 104.590041 392.277609 104.095154 391.095377 C 103.34824 389.670285 95.897433 392.712927 93.225957 395.93886 C 90.435341 399.045654 90.559063 406.244435 88.322904 410.345587 C 85.903454 414.194712 81.307415 416.802036 79.81817 420.092122 C 78.393077 423.382208 80.129766 427.043459 79.323283 430.333545 C 78.081481 433.316617 75.973627 432.633856 73.490025 438.838279 C 71.006422 445.047285 68.147072 454.298933 64.673695 467.271402 C 60.26553 449.767046 58.588411 435.488624 59.642338 423.258486 C 60.636695 410.968778 64.362099 403.577541 70.818548 394.884933 C 77.087124 386.196907 91.924586 378.122908 97.638704 371.354863 C 103.100797 364.279804 101.48783 357.947076 104.278446 353.538911 C 107.009492 349.194898 110.175856 346.275978 114.029563 345.034177 C 117.502941 340.131124 120.357709 336.341569 122.59845 332.927761 C 124.646734 329.637675 126.071827 327.900987 127.125754 325.041636 C 128.184264 321.815703 127.561072 317.778703 129.361913 314.364896 C 131.039032 310.951088 133.710508 307.59685 137.371759 304.554208 C 136.565276 298.161911 136.441554 293.254276 136.748568 289.098137 C 136.872289 284.937416 139.420044 283.695615 139.108448 280.098515 C 138.677713 276.373112 135.69464 270.970589 135.195171 266.997742 C 134.640713 262.901173 134.700283 259.299491 135.630488 255.945253 C 129.733078 253.837399 125.389065 251.908254 122.59845 249.924122 C 119.803251 247.939989 118.190284 246.32244 118.437728 244.397877 C 118.373576 242.285441 121.104622 239.618547 122.59845 237.817706 C 123.89982 235.952713 125.260761 234.399316 126.690436 233.157515 Z M 126.690436 233.162097 " stroke="#000000" stroke-width="2" stroke-opacity="1" stroke-miterlimit="10"/><path stroke-linecap="butt" transform="matrix(0.852466, 0, 0, 0.852466, 177.254568, -26.852693)" fill-opacity="1" fill="#303030" fill-rule="nonzero" stroke-linejoin="miter" d="M 106.010552 387.191265 C 108.989042 382.407352 111.848392 377.939617 114.826882 373.531452 C 117.805372 368.999565 122.213537 365.026717 123.272046 360.930148 C 123.890656 356.769427 121.966093 350.684143 119.670365 349.130746 C 116.998889 347.334488 112.531154 348.324263 109.612234 351.183613 C 106.881188 354.226255 105.456095 361.548758 103.155784 366.208949 C 100.612612 370.42924 99.182937 372.84869 94.774772 377.321007 C 90.055011 381.729172 80.743793 387.314986 75.717019 392.900801 C 70.50237 398.362893 67.148132 403.641693 64.728682 410.157713 C 62.368802 416.49044 61.750192 423.44636 61.873914 431.515776 C 61.933484 439.525623 62.616246 448.529827 64.60496 458.523806 C 67.647602 447.411748 70.190774 439.649345 72.239059 434.558418 C 74.287344 429.467492 75.464993 431.327902 76.45935 428.661008 C 77.146694 425.618366 75.652867 421.269771 77.01839 418.043837 C 78.448065 414.6896 82.35676 412.641315 84.405045 409.474951 C 86.022594 406.184865 86.329607 401.7767 88.006726 398.862363 C 89.560123 395.943442 91.73213 393.707284 94.774772 391.906443 C 97.62954 390.046033 101.606969 388.240609 106.010552 387.191265 Z M 106.010552 387.191265 " stroke="#000000" stroke-width="2" stroke-opacity="1" stroke-miterlimit="4"/><path stroke-linecap="butt" transform="matrix(0.852466, 0, 0, 0.852466, 177.254568, -26.852693)" fill-opacity="1" fill="#303030" fill-rule="nonzero" stroke-linejoin="miter" d="M 73.609164 464.22876 C 81.302833 460.008469 88.387056 455.536152 94.59148 450.568947 C 100.800486 445.482603 105.891412 441.074438 110.794465 434.246822 C 115.573796 427.226751 120.229404 415.931401 123.084172 409.474951 C 125.567775 403.018502 125.631927 402.830628 126.374258 395.256099 C 126.99745 387.310404 127.309046 377.004829 127.309046 363.157142 L 122.777159 365.952341 C 120.229404 369.806048 117.250915 374.333353 114.084551 379.300557 C 110.606591 384.331914 105.950982 391.283251 103.471962 395.815138 C 101.107499 399.97586 99.806128 402.271588 99.554102 405.126356 C 98.875923 407.981124 101.483247 409.534521 100.42932 412.641315 C 99.370811 415.560235 94.65105 419.840096 93.225957 422.823168 C 91.677142 425.613784 91.053951 427.474195 90.682785 429.586631 C 89.935871 431.570764 90.059593 433.559479 89.376832 434.80128 C 88.629918 435.671915 87.887587 434.365962 86.645785 436.166803 C 85.220693 437.908074 83.791017 440.822412 81.678581 445.606325 C 79.442422 450.385655 76.835098 456.283065 73.609164 464.22876 Z M 73.609164 464.22876 " stroke="#000000" stroke-width="2" stroke-opacity="1" stroke-miterlimit="4"/><path stroke-linecap="butt" transform="matrix(0.852466, 0, 0, 0.852466, 177.254568, -26.852693)" fill-opacity="1" fill="#303030" fill-rule="nonzero" stroke-linejoin="miter" d="M 139.910349 305.731857 C 141.087998 306.414619 142.146508 306.909506 143.324157 306.969076 C 144.318514 307.033228 145.372441 306.785785 146.490521 306.226745 C 148.043918 312.623625 148.914553 318.392731 149.349871 323.300365 C 149.533163 328.203418 149.780606 331.181908 148.415083 335.590073 C 146.989991 339.874516 144.258944 345.089164 140.968859 348.814568 C 137.490899 352.292528 133.142304 354.711978 127.927655 356.324945 C 127.680211 352.539971 126.442993 350.056369 124.454278 348.191376 C 122.465563 346.330966 119.487073 345.524482 115.76167 345.524482 C 119.299199 342.110675 121.970675 338.880159 124.266404 335.159337 C 126.442993 331.24606 127.680211 327.149491 128.922013 323.611961 C 129.91637 319.886558 128.981582 317.215081 130.910727 314.172439 C 132.77572 311.129798 135.690058 308.398751 139.910349 305.731857 Z M 139.910349 305.731857 " stroke="#000000" stroke-width="2" stroke-opacity="1" stroke-miterlimit="4"/><path stroke-linecap="butt" transform="matrix(0.852466, 0, 0, 0.852466, 177.254568, -26.852693)" fill-opacity="1" fill="#303030" fill-rule="nonzero" stroke-linejoin="miter" d="M 151.031572 301.69944 C 149.537745 303.436129 147.924778 304.306765 146.188089 304.801652 C 144.199375 305.113248 141.280455 305.053678 140.038653 303.935599 C 138.801434 302.505924 138.737282 300.274347 138.677713 297.479149 C 138.485256 294.372355 138.361534 290.152064 138.984726 287.421018 C 139.420044 284.813694 141.216302 284.254654 141.532481 282.142218 C 141.468328 279.786919 140.473971 277.422457 139.73164 274.384397 C 138.861004 271.341755 137.619203 267.556782 137.183885 264.449988 C 136.872289 261.407346 136.81272 258.240982 137.495481 255.633658 C 138.861004 255.881101 139.979084 255.881101 141.092581 255.633658 C 142.21066 255.386214 143.081295 254.703452 143.951931 253.832817 C 145.62905 254.891326 147.177864 257.122902 148.60754 260.53671 C 149.849341 263.703074 151.274434 269.229318 152.209221 273.761205 C 152.951553 278.16937 154.193354 282.641687 154.00548 287.421018 C 153.822188 292.140779 152.827831 296.732236 151.031572 301.69944 Z M 151.031572 301.69944 " stroke="#000000" stroke-width="2" stroke-opacity="1" stroke-miterlimit="4"/><path stroke-linecap="butt" transform="matrix(0.852466, 0, 0, 0.852466, 177.254568, -26.852693)" fill-opacity="1" fill="#303030" fill-rule="nonzero" stroke-linejoin="miter" d="M 143.328739 251.289645 C 143.145447 249.424652 142.334382 246.139148 140.661845 243.591394 C 138.737282 240.672474 135.570919 236.388031 132.83529 235.521977 C 129.8568 234.591772 125.883953 237.011222 124.023542 238.688341 C 121.911106 240.301308 120.9809 243.220228 121.475788 245.268513 C 122.034828 247.005201 124.953748 248.68232 127.125754 250.047843 C 129.238191 251.289645 131.222323 252.714737 133.770078 253.402081 C 136.189528 254.084843 139.543766 254.332287 141.408759 254.144413 C 143.021726 253.649525 143.328739 253.026333 143.328739 251.289645 Z M 143.328739 251.289645 " stroke="#000000" stroke-width="2" stroke-opacity="1" stroke-miterlimit="4"/><path fill="#303030" d="M 222.910156 188.847656 C 214.96875 192.816406 206.925781 197.84375 198.773438 203.929688 C 190.464844 209.859375 183.535156 214.882812 173.691406 225.152344 C 163.527344 235.527344 150.085938 248.597656 139.289062 265.371094 C 128.335938 282.203125 111.875 318.664062 109.070312 324.542969 C 106.425781 329.78125 117.589844 308.1875 123.199219 298.132812 C 128.597656 287.972656 134.207031 275.800781 141.882812 265.054688 C 149.503906 254.101562 159.453125 243.941406 168.875 234.148438 C 178.347656 224.304688 188.613281 213.984375 197.820312 206.839844 C 206.816406 199.589844 214.863281 194.402344 222.589844 191.070312 C 222.695312 190.328125 222.800781 189.589844 222.90625 188.847656 Z M 222.910156 188.847656 " fill-opacity="1" fill-rule="evenodd"/><g clip-path="url(#7a2181cd3b)"><path stroke-linecap="butt" transform="matrix(0.852466, 0, 0, 0.852466, 177.254568, -26.852693)" fill="none" stroke-linejoin="miter" d="M 53.557054 253.030916 C 44.241254 257.686524 34.806315 263.583934 25.243071 270.723146 C 15.496536 277.679065 7.367549 283.571893 -4.179827 295.618739 C -16.102951 307.789307 -31.870618 323.121656 -44.536074 342.798018 C -57.384821 362.543115 -76.6946 405.31423 -79.984685 412.21058 C -83.086897 418.355433 -69.990706 393.024522 -63.410535 381.229702 C -57.077807 369.311161 -50.497636 355.032738 -41.493432 342.426853 C -32.55338 329.578106 -20.882282 317.659564 -9.829793 306.171757 C 1.282265 294.624381 13.324529 282.517965 24.124992 274.136953 C 34.67801 265.632219 44.117532 259.546935 53.181306 255.63824 C 53.305028 254.767604 53.42875 253.901551 53.552472 253.030916 Z M 53.557054 253.030916 " stroke="#000000" stroke-width="2" stroke-opacity="1" stroke-miterlimit="10"/></g><path stroke-linecap="butt" transform="matrix(0.852466, 0, 0, 0.852466, 177.254568, -26.852693)" fill-opacity="1" fill="#303030" fill-rule="evenodd" stroke-linejoin="miter" d="M 85.344415 248.178268 C 79.130826 256.623433 73.668734 266.122524 68.270794 276.922987 C 62.868272 287.728032 58.272233 296.232766 53.492902 312.495321 C 48.466127 328.579166 41.446056 349.497329 39.150328 372.839526 C 36.730877 396.181722 39.026606 443.241862 39.338202 450.816391 C 39.397771 457.708158 39.521493 429.151314 39.956811 415.679375 C 40.208837 402.083714 39.338202 386.435186 41.63393 371.166989 C 43.805936 355.646766 48.649419 339.755376 53.305028 324.482597 C 57.960637 309.145665 63.051563 292.878528 68.825251 280.465099 C 74.291926 267.987517 80.001462 258.300552 86.210468 250.726023 C 85.963024 249.919539 85.65601 249.048904 85.344415 248.178268 Z M 85.344415 248.178268 " stroke="#000000" stroke-width="2" stroke-opacity="1" stroke-miterlimit="10"/><path stroke-linecap="butt" transform="matrix(0.852466, 0, 0, 0.852466, 177.254568, -26.852693)" fill-opacity="1" fill="#303030" fill-rule="evenodd" stroke-linejoin="miter" d="M 75.052586 233.821947 C 74.438559 235.315774 74.342331 238.647101 74.997599 239.613964 C 76.931326 241.873034 78.415989 244.260408 82.810407 244.16418 C 85.481883 243.793015 90.490329 242.908632 90.426176 240.860348 C 90.178733 238.50505 86.384595 232.263968 83.960562 231.521636 C 81.165364 230.586849 77.233757 232.603057 75.863652 232.896324 Z M 75.052586 233.821947 " stroke="#000000" stroke-width="2" stroke-opacity="1" stroke-miterlimit="10"/><path stroke-linecap="butt" transform="matrix(0.852466, 0, 0, 0.852466, 177.254568, -26.852693)" fill-opacity="1" fill="#ffffff" fill-rule="nonzero" stroke-linejoin="miter" d="M 76.748034 235.499066 C 75.895728 236.8875 77.307074 241.281919 79.364523 242.450403 C 81.408226 243.256887 87.562244 242.821569 88.552019 241.428552 C 89.115641 239.673534 85.582694 234.325999 83.671878 233.304148 C 81.339491 232.351031 77.664493 233.744048 76.748034 235.499066 Z M 76.748034 235.499066 " stroke="#000000" stroke-width="2" stroke-opacity="1" stroke-miterlimit="4"/><path stroke-linecap="butt" transform="matrix(0.852466, 0, 0, 0.852466, 177.254568, -26.852693)" fill-opacity="1" fill="#ffffff" fill-rule="evenodd" stroke-linejoin="miter" d="M 77.45829 235.389091 C 77.366644 235.80608 80.015209 237.836035 80.785034 237.693984 C 81.211187 237.483198 81.211187 234.550531 80.785034 234.271012 C 80.015209 233.785289 77.366644 234.692583 77.453707 235.389091 Z M 77.45829 235.389091 " stroke="#000000" stroke-width="2" stroke-opacity="1" stroke-miterlimit="4"/><path stroke-linecap="butt" transform="matrix(0.852466, 0, 0, 0.852466, 177.254568, -26.852693)" fill-opacity="1" fill="#303030" fill-rule="evenodd" stroke-linejoin="miter" d="M 50.656463 231.1688 C 48.186608 233.157515 46.953971 235.072913 46.665287 236.910412 C 46.445337 238.679177 47.535922 240.961158 49.057243 242.065491 C 50.216563 243.02319 51.8891 243.46309 54.065688 243.096506 C 55.949011 241.401058 57.401597 239.339027 57.616965 237.721478 C 57.836915 235.80608 57.039596 233.450781 56.022327 232.346449 C 54.863007 231.1688 52.975103 230.875533 50.656463 231.1688 Z M 50.656463 231.1688 " stroke="#000000" stroke-width="2" stroke-opacity="1" stroke-miterlimit="10"/><path fill="#303030" d="M 322.8125 148.160156 C 322.039062 147.726562 321.457031 147.089844 321.253906 146.210938 C 320.964844 145.347656 320.703125 143.871094 321.386719 142.964844 C 321.871094 142.007812 322.878906 140.828125 324.367188 140.261719 C 325.8125 139.441406 326.636719 139.078125 330.046875 138.78125 C 333.222656 138.484375 341.179688 137.996094 344.097656 138.875 C 346.964844 139.761719 347.949219 141.636719 347.203125 144.292969 C 348.164062 143.644531 349.289062 144.449219 350.574219 146.703125 C 351.730469 149.027344 353.40625 153.476562 354.800781 157.675781 C 356.042969 161.808594 358.304688 166.679688 359.054688 171.207031 C 359.816406 175.519531 358.769531 177.53125 359.476562 184.199219 C 360.050781 190.890625 361.625 204.332031 362.921875 211.160156 C 364.195312 217.859375 367.03125 222.015625 366.898438 224.433594 C 366.492188 226.640625 362.261719 227.039062 361.304688 225.074219 C 360.328125 222.980469 361.703125 217.773438 361.191406 213.027344 C 360.367188 208.34375 358.628906 203.253906 357.714844 197.273438 C 356.777344 191.160156 357.347656 183.789062 356.164062 177.078125 C 354.875 170.289062 351.714844 160.875 350.109375 156.804688 C 348.246094 152.601562 346.703125 153.917969 345.789062 152.46875 C 344.863281 150.933594 344.4375 149.570312 344.632812 148.011719 C 342.878906 148.410156 341.152344 148.453125 339.703125 148.445312 C 338.191406 148.363281 336.820312 147.472656 335.535156 147.613281 C 334.136719 147.644531 333.332031 148.65625 331.34375 148.785156 C 329.066406 148.839844 326.457031 148.648438 322.8125 148.160156 Z M 322.8125 148.160156 " fill-opacity="1" fill-rule="evenodd"/><g clip-path="url(#4801a9d215)"><path stroke-linecap="butt" transform="matrix(0.852466, 0, 0, 0.852466, 177.254568, -26.852693)" fill="none" stroke-linejoin="miter" d="M 170.749175 205.301761 C 169.841881 204.793126 169.15912 204.046213 168.920841 203.015197 C 168.581751 202.00251 168.274737 200.270404 169.076639 199.207312 C 169.644843 198.084651 170.827074 196.700799 172.572927 196.036366 C 174.268376 195.074085 175.235239 194.647932 179.23558 194.299677 C 182.960984 193.951423 192.295113 193.378637 195.718085 194.409652 C 199.081487 195.449833 200.236225 197.649333 199.361007 200.765292 C 200.488251 200.004631 201.807951 200.948583 203.315525 203.592566 C 204.671884 206.31903 206.637687 211.53826 208.273565 216.464224 C 209.730734 221.31229 212.383881 227.026408 213.263682 232.337284 C 214.157228 237.396135 212.929174 239.756015 213.758569 247.577988 C 214.432166 255.427454 216.27883 271.195122 217.800151 279.204968 C 219.293978 287.063599 222.620722 291.939158 222.464924 294.775597 C 221.988366 297.364592 217.025743 297.831986 215.903082 295.527093 C 214.757509 293.070984 216.370476 286.962789 215.770195 281.395304 C 214.803332 275.901136 212.764212 269.930409 211.691955 262.91492 C 210.592205 255.743633 211.26122 247.096847 209.872785 239.224469 C 208.360629 231.260446 204.653555 220.217122 202.770233 215.442373 C 200.584479 210.511827 198.774474 212.056059 197.702217 210.356029 C 196.616214 208.555188 196.116744 206.955968 196.345859 205.127634 C 194.28841 205.595028 192.263037 205.645433 190.563006 205.636268 C 188.789659 205.54004 187.181275 204.495277 185.673701 204.66024 C 184.03324 204.696898 183.089288 205.883712 180.756901 206.034928 C 178.085425 206.09908 175.024454 205.874547 170.749175 205.301761 Z M 170.749175 205.301761 " stroke="#000000" stroke-width="2" stroke-opacity="1" stroke-miterlimit="10"/></g><path stroke-linecap="butt" transform="matrix(0.852466, 0, 0, 0.852466, 177.254568, -26.852693)" fill-opacity="1" fill="#303030" fill-rule="nonzero" stroke-linejoin="miter" d="M 197.399786 200.86152 C 197.101937 201.984181 196.098415 202.827323 195.062817 203.468844 C 193.724788 203.959149 192.125568 204.243251 190.48969 204.275327 C 188.812571 204.110365 187.341655 203.244312 185.710359 203.331375 C 184.088228 203.464262 182.438602 204.673987 180.390318 204.88019 C 177.989197 204.948924 173.379411 204.637328 172.013888 203.752946 C 170.510896 202.689854 170.625453 200.215417 171.564823 199.028603 C 172.389636 197.759308 174.231717 196.719128 176.930687 196.141759 C 179.565505 195.523149 183.93243 195.110743 187.382896 195.371934 C 190.695893 195.50482 194.393803 195.619378 196.277125 196.66414 C 197.86718 197.612675 197.518926 199.665542 197.399786 200.86152 Z M 197.399786 200.86152 " stroke="#000000" stroke-width="2" stroke-opacity="1" stroke-miterlimit="4"/><path stroke-linecap="butt" transform="matrix(0.852466, 0, 0, 0.852466, 177.254568, -26.852693)" fill-opacity="1" fill="#303030" fill-rule="nonzero" stroke-linejoin="miter" d="M 209.400809 230.00948 C 208.548503 227.351751 207.320449 221.642215 206.115306 218.530838 C 204.781859 215.346145 203.155145 213.284114 201.927091 211.606995 C 200.50658 210.071927 198.46746 210.021522 198.105459 208.912607 C 197.473103 207.487514 198.279586 204.893937 198.934854 203.963732 C 199.548881 203.088514 200.295795 202.3416 201.578837 204.004972 C 202.637346 205.65918 204.126591 210.044433 205.638747 213.659862 C 207.164651 217.018682 209.029644 221.390188 210.317268 224.941465 C 211.352866 228.336943 212.044792 233.171262 212.150185 234.733823 C 211.962311 236.149751 211.009194 234.784228 210.486813 234.005239 C 209.969013 233.230831 210.014836 232.557234 209.400809 230.00948 Z M 209.400809 230.00948 " stroke="#000000" stroke-width="2" stroke-opacity="1" stroke-miterlimit="4"/><path fill="#303030" d="M 312.25 157.074219 C 311.375 156.617188 310.746094 155.949219 310.578125 155.054688 C 310.308594 154.167969 310.125 152.664062 311 151.769531 C 311.648438 150.816406 312.925781 149.65625 314.722656 149.128906 C 316.484375 148.34375 317.484375 148.003906 321.507812 147.816406 C 325.257812 147.617188 334.636719 147.382812 337.988281 148.367188 C 341.285156 149.359375 342.285156 151.289062 341.191406 153.957031 C 342.375 153.332031 343.625 154.183594 344.949219 156.511719 C 346.121094 158.898438 347.71875 163.464844 349.011719 167.757812 C 350.132812 171.988281 352.390625 176.996094 352.898438 181.605469 C 353.4375 185.992188 352.042969 188 352.328125 194.777344 C 352.457031 201.574219 353.199219 215.238281 354.164062 222.195312 C 355.113281 229.023438 358.101562 233.328125 357.746094 235.773438 C 357.089844 237.996094 352.089844 238.257812 351.128906 236.238281 C 350.15625 234.085938 352.191406 228.859375 351.984375 224.035156 C 351.398438 219.257812 349.773438 214.046875 349.191406 207.957031 C 348.589844 201.742188 349.863281 194.292969 349.023438 187.453125 C 348.066406 180.539062 345.132812 170.898438 343.578125 166.722656 C 341.738281 162.40625 339.816406 163.691406 338.863281 162.191406 C 337.90625 160.605469 337.515625 159.214844 337.871094 157.640625 C 335.777344 157.984375 333.75 157.972656 332.050781 157.917969 C 330.285156 157.785156 328.746094 156.839844 327.226562 156.941406 C 325.585938 156.921875 324.558594 157.921875 322.214844 157.992188 C 319.53125 157.972656 316.484375 157.691406 312.253906 157.074219 Z M 312.25 157.074219 " fill-opacity="1" fill-rule="evenodd"/><g clip-path="url(#0a22f04e35)"><path stroke-linecap="butt" transform="matrix(0.852466, 0, 0, 0.852466, 177.254568, -26.852693)" fill="none" stroke-linejoin="miter" d="M 158.358657 215.758551 C 157.332224 215.222423 156.594475 214.438851 156.397436 213.389506 C 156.081258 212.349326 155.86589 210.585144 156.892324 209.535799 C 157.652984 208.417719 159.151394 207.056779 161.259248 206.438169 C 163.325862 205.517129 164.498929 205.118469 169.21869 204.898519 C 173.61769 204.664822 184.619773 204.389885 188.55138 205.544622 C 192.418835 206.708525 193.591901 208.972177 192.30886 212.101882 C 193.697294 211.368716 195.163628 212.367655 196.717025 215.098701 C 198.091712 217.898482 199.96587 223.255181 201.482608 228.29112 C 202.797726 233.253743 205.446291 239.128241 206.041989 244.535346 C 206.674345 249.68126 205.038467 252.036558 205.372974 259.986835 C 205.52419 267.960023 206.394826 283.988881 207.526652 292.149944 C 208.640149 300.15979 212.145602 305.209476 211.728614 308.077991 C 210.958789 310.685315 205.093455 310.992329 203.966211 308.623284 C 202.82522 306.098441 205.212594 299.967334 204.969733 294.308203 C 204.282389 288.70406 202.376155 282.591282 201.693394 275.447489 C 200.987721 268.157062 202.481548 259.418631 201.496355 251.395037 C 200.373694 243.28438 196.932392 231.975283 195.10864 227.076813 C 192.950381 222.01338 190.695893 223.520954 189.577814 221.761354 C 188.455152 219.900944 187.996923 218.269648 188.413911 216.422984 C 185.957803 216.826226 183.579593 216.812479 181.586296 216.748327 C 179.5151 216.592529 177.709677 215.483614 175.927165 215.602754 C 174.002603 215.579842 172.79746 216.752909 170.048084 216.83539 C 166.90005 216.812479 163.325862 216.482554 158.36324 215.758551 Z M 158.358657 215.758551 " stroke="#000000" stroke-width="2" stroke-opacity="1" stroke-miterlimit="10"/></g><path stroke-linecap="butt" transform="matrix(0.852466, 0, 0, 0.852466, 177.254568, -26.852693)" fill-opacity="1" fill="#303030" fill-rule="nonzero" stroke-linejoin="miter" d="M 189.999384 212.129376 C 189.564067 213.261202 188.313101 214.07685 187.043806 214.69546 C 185.430839 215.149107 183.53377 215.382804 181.609208 215.364474 C 179.652569 215.144524 178.002944 214.218901 176.082963 214.250977 C 174.167565 214.333459 172.128445 215.501943 169.708995 215.648576 C 166.881721 215.63483 161.497527 215.167436 159.971624 214.228066 C 158.289923 213.105404 158.62443 210.603473 159.829573 209.430406 C 160.897247 208.174858 163.151735 207.180501 166.363922 206.685613 C 169.502792 206.144903 174.667035 205.869965 178.690287 206.245713 C 182.571489 206.483992 186.901755 206.722271 189.027938 207.844933 C 190.815032 208.853037 190.237664 210.924233 189.999384 212.129376 Z M 189.999384 212.129376 " stroke="#000000" stroke-width="2" stroke-opacity="1" stroke-miterlimit="4"/><path stroke-linecap="butt" transform="matrix(0.852466, 0, 0, 0.852466, 177.254568, -26.852693)" fill-opacity="1" fill="#303030" fill-rule="nonzero" stroke-linejoin="miter" d="M 201.688812 242.051744 C 200.90524 239.329862 199.938376 233.505769 198.774474 230.316494 C 197.473103 227.049319 195.731832 224.904807 194.430461 223.168118 C 192.886228 221.564316 190.498854 221.449758 190.164347 220.31335 C 189.536573 218.851599 190.695893 216.248857 191.543617 215.327816 C 192.336353 214.461763 193.271141 213.733178 194.636664 215.460702 C 195.750161 217.165315 197.129431 221.660544 198.614094 225.367618 C 200.130832 228.818084 201.963749 233.30873 203.182639 236.94707 C 204.122009 240.420448 204.534415 245.341829 204.534415 246.927303 C 204.195325 248.352395 203.187221 246.941049 202.637346 246.134566 C 202.092053 245.332665 202.202028 244.654486 201.688812 242.051744 Z M 201.688812 242.051744 " stroke="#000000" stroke-width="2" stroke-opacity="1" stroke-miterlimit="4"/><path stroke-linecap="butt" transform="matrix(0.852466, 0, 0, 0.852466, 177.254568, -26.852693)" fill-opacity="1" fill="#303030" fill-rule="evenodd" stroke-linejoin="miter" d="M 146.971661 223.681335 C 145.972722 222.957332 145.257884 221.958393 145.088339 220.666186 C 144.79049 219.383145 144.598034 217.220303 145.615303 216.010578 C 146.371381 214.69546 147.856044 213.132898 149.918075 212.518871 C 151.952613 211.529096 153.098186 211.11669 157.712554 211.148766 C 162.015326 211.148766 172.765384 211.515349 176.587015 213.174139 C 180.349077 214.837511 181.467156 217.669367 180.17495 221.399353 C 181.540473 220.59287 182.960984 221.903405 184.445646 225.326377 C 185.747017 228.827249 187.5112 235.462408 188.927128 241.698907 C 190.1506 247.820849 192.661696 255.143352 193.179495 261.764764 C 193.72937 268.074581 192.102656 270.833121 192.327189 280.538415 C 192.368429 290.252875 193.019115 309.828427 194.022637 319.836153 C 195.003247 329.660587 198.36665 336.034555 197.922167 339.498768 C 197.138596 342.619309 191.401566 342.623891 190.338474 339.663731 C 189.247888 336.520278 191.662756 329.20694 191.493212 322.301426 C 190.892931 315.437152 189.105837 307.867206 188.533051 299.128774 C 187.941935 290.202469 189.509079 279.658615 188.647608 269.829599 C 187.653251 259.881442 184.436482 245.891704 182.718122 239.811003 C 180.67442 233.505769 178.452008 235.196635 177.384334 232.983388 C 176.307496 230.646419 175.885925 228.63021 176.312078 226.407798 C 173.910957 226.746888 171.592317 226.572761 169.64026 226.37114 C 167.61947 226.05038 165.873616 224.579464 164.127763 224.606958 C 162.244441 224.460324 161.057627 225.8121 158.367822 225.734201 C 155.297686 225.509669 151.810562 224.877313 146.971661 223.681335 Z M 146.971661 223.681335 " stroke="#000000" stroke-width="2" stroke-opacity="1" stroke-miterlimit="10"/><path stroke-linecap="butt" transform="matrix(0.852466, 0, 0, 0.852466, 177.254568, -26.852693)" fill-opacity="1" fill="#303030" fill-rule="nonzero" stroke-linejoin="miter" d="M 177.920462 221.280213 C 177.47598 222.627407 176.247926 223.543866 174.99696 224.217463 C 173.416069 224.666527 171.560241 224.826908 169.681501 224.680274 C 167.775268 224.286197 166.171465 223.053561 164.297308 222.971079 C 162.42315 222.948168 160.420689 224.244956 158.056226 224.263286 C 155.293104 224.070829 150.041797 223.158953 148.561717 221.917152 C 146.939585 220.437072 147.297004 217.417341 148.483818 216.065565 C 149.542327 214.599232 151.755574 213.53614 154.899027 213.13748 C 157.973745 212.679251 163.018848 212.674669 166.945873 213.389506 C 170.735428 213.930217 174.955719 214.498421 177.022333 215.996831 C 178.759022 217.344025 178.167906 219.827627 177.920462 221.280213 Z M 177.920462 221.280213 " stroke="#000000" stroke-width="2" stroke-opacity="1" stroke-miterlimit="4"/><path stroke-linecap="butt" transform="matrix(0.852466, 0, 0, 0.852466, 177.254568, -26.852693)" fill-opacity="1" fill="#303030" fill-rule="nonzero" stroke-linejoin="miter" d="M 188.959204 258.460932 C 188.23062 255.097529 187.355402 247.949154 186.260234 243.990053 C 185.03218 239.92556 183.359643 237.203679 182.108677 235.008761 C 180.624015 232.955894 178.291628 232.662627 177.980032 231.255863 C 177.388916 229.436693 178.548236 226.343646 179.391378 225.27139 C 180.170368 224.267868 181.095991 223.438473 182.411109 225.633391 C 183.4742 227.782486 184.766407 233.340806 186.168588 237.950592 C 187.607428 242.253365 189.339534 247.834596 190.485107 252.343572 C 191.355743 256.632597 191.694832 262.644565 191.676503 264.582874 C 191.328249 266.292069 190.361385 264.509557 189.834422 263.496871 C 189.312041 262.484184 189.426598 261.659372 188.959204 258.460932 Z M 188.959204 258.460932 " stroke="#000000" stroke-width="2" stroke-opacity="1" stroke-miterlimit="4"/><path stroke-linecap="butt" transform="matrix(0.852466, 0, 0, 0.852466, 177.254568, -26.852693)" fill-opacity="1" fill="#303030" fill-rule="evenodd" stroke-linejoin="miter" d="M 136.867707 233.052122 C 135.942084 232.241056 135.318892 231.187129 135.25474 229.885758 C 135.071449 228.579805 135.071449 226.407798 136.189528 225.289719 C 137.060163 224.047918 138.67313 222.618243 140.780985 222.182925 C 142.893421 221.376442 144.07107 221.064846 148.667109 221.500163 C 152.951553 221.875911 163.623711 223.177282 167.289545 225.165997 C 170.891226 227.15013 171.757279 230.06905 170.148895 233.670731 C 171.573988 232.98797 172.879941 234.417645 174.05759 237.955175 C 175.051947 241.552274 176.229597 248.320319 177.100232 254.653047 C 177.782994 260.862053 179.643404 268.377012 179.579252 275.016753 C 179.579252 281.349481 177.718842 283.956805 177.100232 293.643771 C 176.293749 303.326154 175.235239 322.883377 175.363543 332.941508 C 175.487265 342.811765 178.277881 349.456089 177.53555 352.869896 C 176.481623 355.912538 170.767504 355.413069 169.961021 352.370427 C 169.154538 349.144493 172.192597 342.069434 172.627915 335.177667 C 172.627915 328.285899 171.509836 320.583066 171.69771 311.830888 C 171.885584 302.895419 174.364604 292.525691 174.364604 282.655434 C 174.240882 272.661455 172.256749 258.442603 171.074518 252.238179 C 169.585273 245.777147 167.229975 247.266392 166.354757 244.970664 C 165.488704 242.551214 165.24126 240.498347 165.859869 238.32634 C 163.440419 238.450062 161.140109 238.078896 159.220128 237.707731 C 157.231413 237.208261 155.618447 235.595294 153.881758 235.471572 C 152.016765 235.159976 150.715394 236.401777 148.043918 236.094764 C 145.005858 235.595294 141.587468 234.665089 136.867707 233.052122 Z M 136.867707 233.052122 " stroke="#000000" stroke-width="2" stroke-opacity="1" stroke-miterlimit="10"/><path stroke-linecap="butt" transform="matrix(0.852466, 0, 0, 0.852466, 177.254568, -26.852693)" fill-opacity="1" fill="#303030" fill-rule="nonzero" stroke-linejoin="miter" d="M 167.908154 233.359136 C 167.349114 234.665089 166.047743 235.471572 164.74179 236.030612 C 163.128823 236.337625 161.268413 236.337625 159.40342 236.030612 C 157.543009 235.471572 156.053764 234.106049 154.188771 233.858605 C 152.328361 233.670731 150.215924 234.788811 147.860626 234.600937 C 145.124998 234.165619 139.974501 232.800096 138.608978 231.434573 C 137.119733 229.821606 137.738343 226.843116 139.039714 225.601315 C 140.221945 224.235792 142.522256 223.365156 145.68862 223.241435 C 148.790831 223.053561 153.817606 223.488878 157.666731 224.542805 C 161.392135 225.413441 165.552856 226.343646 167.472836 228.020765 C 169.085803 229.51001 168.283902 231.934043 167.908154 233.359136 Z M 167.908154 233.359136 " stroke="#000000" stroke-width="2" stroke-opacity="1" stroke-miterlimit="4"/><path stroke-linecap="butt" transform="matrix(0.852466, 0, 0, 0.852466, 177.254568, -26.852693)" fill-opacity="1" fill="#303030" fill-rule="nonzero" stroke-linejoin="miter" d="M 175.670557 271.35092 C 175.235239 267.937112 174.987795 260.738331 174.240882 256.696749 C 173.370246 252.54061 171.945153 249.685842 170.891226 247.385532 C 169.585273 245.213525 167.289545 244.718638 167.101671 243.288963 C 166.670935 241.428552 168.096028 238.450062 169.026233 237.455705 C 169.896869 236.520917 170.891226 235.778586 172.009306 238.074314 C 172.875359 240.310473 173.681842 245.960439 174.6762 250.675617 C 175.734709 255.083782 176.971928 260.797901 177.718842 265.389357 C 178.213729 269.73337 178.030437 275.759085 177.842563 277.683647 C 177.347676 279.356184 176.53661 277.495773 176.105875 276.441846 C 175.670557 275.387919 175.858431 274.581435 175.670557 271.35092 Z M 175.670557 271.35092 " stroke="#000000" stroke-width="2" stroke-opacity="1" stroke-miterlimit="4"/><path stroke-linecap="butt" transform="matrix(0.852466, 0, 0, 0.852466, 177.254568, -26.852693)" fill-opacity="1" fill="#ffffff" fill-rule="nonzero" stroke-linejoin="miter" d="M 50.793932 232.030271 C 48.686078 233.70739 47.627568 235.320357 47.384707 236.873754 C 47.196833 238.362999 48.127038 240.287561 49.432991 241.217767 C 50.422766 242.02425 51.852441 242.399998 53.712852 242.088402 C 55.330401 240.658727 56.56762 238.922038 56.755494 237.556515 C 56.943368 235.943548 56.260606 233.954833 55.389971 233.024628 C 54.400196 232.030271 52.782647 231.782827 50.793932 232.030271 Z M 50.793932 232.030271 " stroke="#000000" stroke-width="2" stroke-opacity="1" stroke-miterlimit="4"/><path stroke-linecap="butt" transform="matrix(0.852466, 0, 0, 0.852466, 177.254568, -26.852693)" fill-opacity="1" fill="#303030" fill-rule="evenodd" stroke-linejoin="miter" d="M 48.566938 234.958355 C 48.479874 235.375344 51.128439 237.400717 51.898264 237.263248 C 52.324417 237.057045 52.324417 234.119796 51.898264 233.840276 C 51.128439 233.354553 48.479874 234.261847 48.566938 234.958355 Z M 48.566938 234.958355 " stroke="#000000" stroke-width="2" stroke-opacity="1" stroke-miterlimit="4"/></svg>